<mxfile host="app.diagrams.net" modified="2023-05-18T03:01:21.836Z" agent="Mozilla/5.0 (Windows NT 10.0; Win64; x64) AppleWebKit/537.36 (KHTML, like Gecko) Chrome/112.0.0.0 Safari/537.36" etag="agdwGAvThXdV_AEz4LRJ" version="21.2.9" type="github">
  <diagram id="C5RBs43oDa-KdzZeNtuy" name="Page-1">
    <mxGraphModel dx="1434" dy="804" grid="1" gridSize="10" guides="1" tooltips="1" connect="1" arrows="1" fold="1" page="1" pageScale="1" pageWidth="827" pageHeight="1169" math="0" shadow="0">
      <root>
        <mxCell id="WIyWlLk6GJQsqaUBKTNV-0" />
        <mxCell id="WIyWlLk6GJQsqaUBKTNV-1" parent="WIyWlLk6GJQsqaUBKTNV-0" />
        <mxCell id="NN7bGj4gGBuyJrISqEii-26" value="" style="edgeStyle=orthogonalEdgeStyle;rounded=0;orthogonalLoop=1;jettySize=auto;html=1;" edge="1" parent="WIyWlLk6GJQsqaUBKTNV-1" source="NN7bGj4gGBuyJrISqEii-27" target="NN7bGj4gGBuyJrISqEii-37">
          <mxGeometry relative="1" as="geometry" />
        </mxCell>
        <mxCell id="NN7bGj4gGBuyJrISqEii-27" value="本地资料库内容" style="rounded=0;whiteSpace=wrap;html=1;" vertex="1" parent="WIyWlLk6GJQsqaUBKTNV-1">
          <mxGeometry x="130" y="60" width="120" height="60" as="geometry" />
        </mxCell>
        <mxCell id="NN7bGj4gGBuyJrISqEii-28" value="" style="edgeStyle=orthogonalEdgeStyle;rounded=0;orthogonalLoop=1;jettySize=auto;html=1;" edge="1" parent="WIyWlLk6GJQsqaUBKTNV-1" source="NN7bGj4gGBuyJrISqEii-29" target="NN7bGj4gGBuyJrISqEii-31">
          <mxGeometry relative="1" as="geometry" />
        </mxCell>
        <mxCell id="NN7bGj4gGBuyJrISqEii-29" value="openai 向量化接口或者其他向量化接口" style="rounded=1;whiteSpace=wrap;html=1;" vertex="1" parent="WIyWlLk6GJQsqaUBKTNV-1">
          <mxGeometry x="130" y="240" width="120" height="60" as="geometry" />
        </mxCell>
        <mxCell id="NN7bGj4gGBuyJrISqEii-30" value="" style="edgeStyle=orthogonalEdgeStyle;rounded=0;orthogonalLoop=1;jettySize=auto;html=1;entryX=0.25;entryY=0;entryDx=0;entryDy=0;" edge="1" parent="WIyWlLk6GJQsqaUBKTNV-1" source="NN7bGj4gGBuyJrISqEii-31" target="NN7bGj4gGBuyJrISqEii-39">
          <mxGeometry relative="1" as="geometry" />
        </mxCell>
        <mxCell id="NN7bGj4gGBuyJrISqEii-31" value="批量 内容片段+对应向量" style="rounded=0;whiteSpace=wrap;html=1;" vertex="1" parent="WIyWlLk6GJQsqaUBKTNV-1">
          <mxGeometry x="130" y="330" width="120" height="60" as="geometry" />
        </mxCell>
        <mxCell id="NN7bGj4gGBuyJrISqEii-32" value="" style="edgeStyle=orthogonalEdgeStyle;rounded=0;orthogonalLoop=1;jettySize=auto;html=1;" edge="1" parent="WIyWlLk6GJQsqaUBKTNV-1" source="NN7bGj4gGBuyJrISqEii-33" target="NN7bGj4gGBuyJrISqEii-35">
          <mxGeometry relative="1" as="geometry" />
        </mxCell>
        <mxCell id="NN7bGj4gGBuyJrISqEii-33" value="输入内容" style="rounded=0;whiteSpace=wrap;html=1;" vertex="1" parent="WIyWlLk6GJQsqaUBKTNV-1">
          <mxGeometry x="370" y="60" width="120" height="60" as="geometry" />
        </mxCell>
        <mxCell id="NN7bGj4gGBuyJrISqEii-34" value="" style="edgeStyle=orthogonalEdgeStyle;rounded=0;orthogonalLoop=1;jettySize=auto;html=1;" edge="1" parent="WIyWlLk6GJQsqaUBKTNV-1" source="NN7bGj4gGBuyJrISqEii-35" target="NN7bGj4gGBuyJrISqEii-46">
          <mxGeometry relative="1" as="geometry" />
        </mxCell>
        <mxCell id="NN7bGj4gGBuyJrISqEii-35" value="openai 向量化接口或者其他向量化接口" style="rounded=1;whiteSpace=wrap;html=1;" vertex="1" parent="WIyWlLk6GJQsqaUBKTNV-1">
          <mxGeometry x="370" y="150" width="120" height="60" as="geometry" />
        </mxCell>
        <mxCell id="NN7bGj4gGBuyJrISqEii-36" value="" style="edgeStyle=orthogonalEdgeStyle;rounded=0;orthogonalLoop=1;jettySize=auto;html=1;" edge="1" parent="WIyWlLk6GJQsqaUBKTNV-1" source="NN7bGj4gGBuyJrISqEii-37" target="NN7bGj4gGBuyJrISqEii-29">
          <mxGeometry relative="1" as="geometry" />
        </mxCell>
        <mxCell id="NN7bGj4gGBuyJrISqEii-37" value="拆分多个内容片段" style="rounded=0;whiteSpace=wrap;html=1;" vertex="1" parent="WIyWlLk6GJQsqaUBKTNV-1">
          <mxGeometry x="130" y="150" width="120" height="60" as="geometry" />
        </mxCell>
        <mxCell id="NN7bGj4gGBuyJrISqEii-38" value="" style="edgeStyle=orthogonalEdgeStyle;rounded=0;orthogonalLoop=1;jettySize=auto;html=1;" edge="1" parent="WIyWlLk6GJQsqaUBKTNV-1" source="NN7bGj4gGBuyJrISqEii-39" target="NN7bGj4gGBuyJrISqEii-50">
          <mxGeometry relative="1" as="geometry" />
        </mxCell>
        <mxCell id="NN7bGj4gGBuyJrISqEii-39" value="向量数据库" style="rounded=1;whiteSpace=wrap;html=1;" vertex="1" parent="WIyWlLk6GJQsqaUBKTNV-1">
          <mxGeometry x="250" y="480" width="120" height="60" as="geometry" />
        </mxCell>
        <mxCell id="NN7bGj4gGBuyJrISqEii-40" value="" style="endArrow=none;dashed=1;html=1;rounded=0;" edge="1" parent="WIyWlLk6GJQsqaUBKTNV-1">
          <mxGeometry width="50" height="50" relative="1" as="geometry">
            <mxPoint x="110" y="419" as="sourcePoint" />
            <mxPoint x="110" y="29" as="targetPoint" />
          </mxGeometry>
        </mxCell>
        <mxCell id="NN7bGj4gGBuyJrISqEii-41" value="" style="endArrow=none;dashed=1;html=1;rounded=0;" edge="1" parent="WIyWlLk6GJQsqaUBKTNV-1">
          <mxGeometry width="50" height="50" relative="1" as="geometry">
            <mxPoint x="110" y="29" as="sourcePoint" />
            <mxPoint x="270" y="29" as="targetPoint" />
          </mxGeometry>
        </mxCell>
        <mxCell id="NN7bGj4gGBuyJrISqEii-42" value="" style="endArrow=none;dashed=1;html=1;rounded=0;" edge="1" parent="WIyWlLk6GJQsqaUBKTNV-1">
          <mxGeometry width="50" height="50" relative="1" as="geometry">
            <mxPoint x="270" y="418" as="sourcePoint" />
            <mxPoint x="270" y="28" as="targetPoint" />
          </mxGeometry>
        </mxCell>
        <mxCell id="NN7bGj4gGBuyJrISqEii-43" value="" style="endArrow=none;dashed=1;html=1;rounded=0;" edge="1" parent="WIyWlLk6GJQsqaUBKTNV-1">
          <mxGeometry width="50" height="50" relative="1" as="geometry">
            <mxPoint x="110" y="420" as="sourcePoint" />
            <mxPoint x="270" y="420" as="targetPoint" />
          </mxGeometry>
        </mxCell>
        <mxCell id="NN7bGj4gGBuyJrISqEii-44" value="本地资料内容预处理" style="text;html=1;align=center;verticalAlign=middle;resizable=0;points=[];autosize=1;strokeColor=none;fillColor=none;" vertex="1" parent="WIyWlLk6GJQsqaUBKTNV-1">
          <mxGeometry x="124" y="29" width="130" height="30" as="geometry" />
        </mxCell>
        <mxCell id="NN7bGj4gGBuyJrISqEii-45" value="" style="edgeStyle=orthogonalEdgeStyle;rounded=0;orthogonalLoop=1;jettySize=auto;html=1;" edge="1" parent="WIyWlLk6GJQsqaUBKTNV-1" source="NN7bGj4gGBuyJrISqEii-46" target="NN7bGj4gGBuyJrISqEii-48">
          <mxGeometry relative="1" as="geometry" />
        </mxCell>
        <mxCell id="NN7bGj4gGBuyJrISqEii-46" value="输入内容对应的向量" style="rounded=0;whiteSpace=wrap;html=1;" vertex="1" parent="WIyWlLk6GJQsqaUBKTNV-1">
          <mxGeometry x="370" y="240" width="120" height="60" as="geometry" />
        </mxCell>
        <mxCell id="NN7bGj4gGBuyJrISqEii-47" style="edgeStyle=orthogonalEdgeStyle;rounded=0;orthogonalLoop=1;jettySize=auto;html=1;entryX=0.75;entryY=0;entryDx=0;entryDy=0;" edge="1" parent="WIyWlLk6GJQsqaUBKTNV-1" source="NN7bGj4gGBuyJrISqEii-48" target="NN7bGj4gGBuyJrISqEii-39">
          <mxGeometry relative="1" as="geometry" />
        </mxCell>
        <mxCell id="NN7bGj4gGBuyJrISqEii-48" value="与本地资料内容计算向量相似度" style="rounded=0;whiteSpace=wrap;html=1;" vertex="1" parent="WIyWlLk6GJQsqaUBKTNV-1">
          <mxGeometry x="370" y="330" width="120" height="60" as="geometry" />
        </mxCell>
        <mxCell id="NN7bGj4gGBuyJrISqEii-49" value="" style="edgeStyle=orthogonalEdgeStyle;rounded=0;orthogonalLoop=1;jettySize=auto;html=1;" edge="1" parent="WIyWlLk6GJQsqaUBKTNV-1" source="NN7bGj4gGBuyJrISqEii-50" target="NN7bGj4gGBuyJrISqEii-51">
          <mxGeometry relative="1" as="geometry" />
        </mxCell>
        <mxCell id="NN7bGj4gGBuyJrISqEii-50" value="查询最相似的片段，取前k个" style="rounded=0;whiteSpace=wrap;html=1;" vertex="1" parent="WIyWlLk6GJQsqaUBKTNV-1">
          <mxGeometry x="250" y="570" width="120" height="60" as="geometry" />
        </mxCell>
        <mxCell id="NN7bGj4gGBuyJrISqEii-51" value="带上提问内容及查询出来的相似内容片段作为prompt，使gpt基于提供的内容片段回答用户提问" style="rounded=0;whiteSpace=wrap;html=1;" vertex="1" parent="WIyWlLk6GJQsqaUBKTNV-1">
          <mxGeometry x="135" y="660" width="350" height="90" as="geometry" />
        </mxCell>
      </root>
    </mxGraphModel>
  </diagram>
</mxfile>
